<?xml version="1.0" encoding="UTF-8" standalone="no"?>
<!-- Created with Inkscape (http://www.inkscape.org/) -->

<svg
   width="512"
   height="512"
   viewBox="0 0 512 512"
   version="1.1"
   id="svg5"
   inkscape:version="1.1.1 (3bf5ae0d25, 2021-09-20, custom)"
   sodipodi:docname="volvox-icon.svg"
   inkscape:export-filename="/media/dati/media/Tempfolder/icone/mie/volvox.png"
   inkscape:export-xdpi="96"
   inkscape:export-ydpi="96"
   xmlns:inkscape="http://www.inkscape.org/namespaces/inkscape"
   xmlns:sodipodi="http://sodipodi.sourceforge.net/DTD/sodipodi-0.dtd"
   xmlns="http://www.w3.org/2000/svg"
   xmlns:svg="http://www.w3.org/2000/svg">
  <sodipodi:namedview
     id="namedview7"
     pagecolor="#ffffff"
     bordercolor="#666666"
     borderopacity="1.0"
     inkscape:pageshadow="2"
     inkscape:pageopacity="0.0"
     inkscape:pagecheckerboard="0"
     inkscape:document-units="px"
     showgrid="false"
     inkscape:snap-page="true"
     inkscape:snap-text-baseline="true"
     inkscape:snap-center="true"
     inkscape:snap-object-midpoints="true"
     inkscape:snap-midpoints="true"
     inkscape:snap-smooth-nodes="true"
     inkscape:object-paths="true"
     inkscape:snap-intersection-paths="true"
     inkscape:snap-bbox="true"
     inkscape:bbox-paths="true"
     inkscape:bbox-nodes="true"
     inkscape:snap-bbox-edge-midpoints="true"
     inkscape:snap-bbox-midpoints="true"
     inkscape:zoom="0.90509668"
     inkscape:cx="59.109708"
     inkscape:cy="360.73494"
     inkscape:window-width="1920"
     inkscape:window-height="1002"
     inkscape:window-x="1080"
     inkscape:window-y="537"
     inkscape:window-maximized="1"
     inkscape:current-layer="layer1" />
  <defs
     id="defs2">
    <linearGradient
       id="linearGradient2940"
       inkscape:swatch="solid">
      <stop
         style="stop-color:#00ff00;stop-opacity:1;"
         offset="0"
         id="stop2938" />
    </linearGradient>
  </defs>
  <g
     inkscape:label="Layer 1"
     inkscape:groupmode="layer"
     id="layer1">
    <path
       id="path31-2"
       style="color:#000000;fill:#4caf50;fill-rule:evenodd;-inkscape-stroke:none;fill-opacity:1"
       d="M 256 19.970703 C 125.52651 19.970703 19.970703 125.52651 19.970703 256 C 19.970703 386.47349 125.52651 492.0293 256 492.0293 C 386.47349 492.0293 492.0293 386.47349 492.0293 256 C 492.0293 125.52651 386.47349 19.970703 256 19.970703 z " />
    <path
       style="color:#000000;fill:#ffffff;fill-rule:evenodd;-inkscape-stroke:none;fill-opacity:1"
       d="M 256,0 C 114.7335,0 0,114.7335 0,256 0,397.2665 114.7335,512 256,512 397.2665,512 512,397.2665 512,256 512,114.7335 397.2665,0 256,0 Z m 0,19.970703 C 386.47349,19.970703 492.0293,125.52651 492.0293,256 492.0293,386.47349 386.47349,492.0293 256,492.0293 125.52651,492.0293 19.970703,386.47349 19.970703,256 19.970703,125.52651 125.52651,19.970703 256,19.970703 Z"
       id="path31" />
    <path
       id="path1539-9"
       style="color:#000000;mix-blend-mode:normal;fill:#087f23;fill-opacity:1;-inkscape-stroke:none"
       d="M 136.86328 105.20312 C 111.92338 105.20312 91.919922 125.20659 91.919922 150.14648 C 91.919922 175.08638 111.92338 195.08984 136.86328 195.08984 C 161.80318 195.08984 181.80664 175.08638 181.80664 150.14648 C 181.80664 125.20659 161.80318 105.20312 136.86328 105.20312 z M 117.75586 214.91992 C 92.815961 214.91992 72.8125 234.92338 72.8125 259.86328 C 72.8125 284.80318 92.815961 304.80664 117.75586 304.80664 C 142.69576 304.80664 162.69922 284.80318 162.69922 259.86328 C 162.69922 234.92338 142.69576 214.91992 117.75586 214.91992 z " />
    <path
       id="path1539"
       style="color:#000000;fill:#ffffff;-inkscape-stroke:none;fill-opacity:1"
       d="M 136.86328 85.203125 C 101.11459 85.203125 71.919922 114.39779 71.919922 150.14648 C 71.919922 169.7305 80.693124 187.3339 94.494141 199.26172 C 70.16892 208.65911 52.8125 232.30628 52.8125 259.86328 C 52.8125 295.61197 82.007168 324.80664 117.75586 324.80664 C 153.50455 324.80664 182.69922 295.61197 182.69922 259.86328 C 182.69922 240.27926 173.92602 222.67586 160.125 210.74805 C 184.45022 201.35066 201.80664 177.70349 201.80664 150.14648 C 201.80664 114.39779 172.61197 85.203125 136.86328 85.203125 z M 136.86328 105.20312 C 161.80318 105.20312 181.80664 125.20659 181.80664 150.14648 C 181.80664 175.08638 161.80318 195.08984 136.86328 195.08984 C 111.92338 195.08984 91.919922 175.08638 91.919922 150.14648 C 91.919922 125.20659 111.92338 105.20312 136.86328 105.20312 z M 117.75586 214.91992 C 142.69576 214.91992 162.69922 234.92338 162.69922 259.86328 C 162.69922 284.80318 142.69576 304.80664 117.75586 304.80664 C 92.81596 304.80664 72.8125 284.80318 72.8125 259.86328 C 72.8125 234.92338 92.81596 214.91992 117.75586 214.91992 z " />
    <path
       id="path1539-7-1"
       style="color:#000000;mix-blend-mode:normal;fill:#087f23;fill-opacity:1;-inkscape-stroke:none"
       d="M 182.69922 344.80664 C 157.75931 344.80664 137.75586 364.8101 137.75586 389.75 C 137.75586 414.6899 157.75932 434.69336 182.69922 434.69336 C 207.63911 434.69336 227.64258 414.6899 227.64258 389.75 C 227.64258 364.8101 207.63911 344.80664 182.69922 344.80664 z " />
    <path
       style="color:#000000;mix-blend-mode:normal;fill:#ffffff;-inkscape-stroke:none;fill-opacity:1"
       d="m 182.69922,324.80664 c -35.74869,0 -64.94336,29.19467 -64.94336,64.94336 0,35.74869 29.19467,64.94336 64.94336,64.94336 35.74869,0 64.94336,-29.19467 64.94336,-64.94336 0,-35.74869 -29.19467,-64.94336 -64.94336,-64.94336 z m 0,20 c 24.9399,0 44.94336,20.00346 44.94336,44.94336 0,24.9399 -20.00346,44.94336 -44.94336,44.94336 -24.9399,0 -44.94336,-20.00346 -44.94336,-44.94336 0,-24.9399 20.00346,-44.94336 44.94336,-44.94336 z"
       id="path1539-7" />
    <path
       id="path1539-5-2"
       style="color:#000000;mix-blend-mode:normal;fill:#087f23;fill-opacity:1;-inkscape-stroke:none"
       d="M 338.25781 85.292969 C 313.31791 85.292969 293.31445 105.29643 293.31445 130.23633 C 293.31445 155.17623 313.31791 175.17969 338.25781 175.17969 C 363.19771 175.17969 383.20117 155.17623 383.20117 130.23633 C 383.20117 105.29643 363.19771 85.292969 338.25781 85.292969 z M 311.12891 192.51758 C 286.18901 192.51758 266.18555 212.52104 266.18555 237.46094 C 266.18555 262.40084 286.18901 282.4043 311.12891 282.4043 C 336.0688 282.4043 356.07227 262.40084 356.07227 237.46094 C 356.07227 212.52104 336.0688 192.51758 311.12891 192.51758 z M 416.22656 226.38281 C 391.28666 226.38281 371.2832 246.38627 371.2832 271.32617 C 371.2832 296.26607 391.28666 316.26953 416.22656 316.26953 C 441.16646 316.26953 461.16992 296.26607 461.16992 271.32617 C 461.16992 246.38627 441.16646 226.38281 416.22656 226.38281 z " />
    <path
       id="path1539-5"
       style="color:#000000;fill:#ffffff;-inkscape-stroke:none;fill-opacity:1"
       d="M 338.25781 65.292969 C 302.50912 65.292969 273.31445 94.487637 273.31445 130.23633 C 273.31445 147.79566 280.36917 163.76283 291.77344 175.47656 C 265.41679 183.75268 246.18555 208.44765 246.18555 237.46094 C 246.18555 273.20963 275.38022 302.4043 311.12891 302.4043 C 327.14382 302.4043 341.83295 296.5323 353.18164 286.84961 C 360.17892 315.15194 385.82577 336.26953 416.22656 336.26953 C 451.97525 336.26953 481.16992 307.07486 481.16992 271.32617 C 481.16992 235.57748 451.97525 206.38281 416.22656 206.38281 C 400.21165 206.38281 385.52252 212.25481 374.17383 221.9375 C 371.36315 210.56899 365.54425 200.36688 357.61328 192.2207 C 383.96993 183.94458 403.20117 159.24962 403.20117 130.23633 C 403.20117 94.487637 374.0065 65.292969 338.25781 65.292969 z M 338.25781 85.292969 C 363.19771 85.292969 383.20117 105.29643 383.20117 130.23633 C 383.20117 155.17623 363.19771 175.17969 338.25781 175.17969 C 313.31791 175.17969 293.31445 155.17623 293.31445 130.23633 C 293.31445 105.29643 313.31791 85.292969 338.25781 85.292969 z M 311.12891 192.51758 C 336.0688 192.51758 356.07227 212.52104 356.07227 237.46094 C 356.07227 262.40084 336.0688 282.4043 311.12891 282.4043 C 286.18901 282.4043 266.18555 262.40084 266.18555 237.46094 C 266.18555 212.52104 286.18901 192.51758 311.12891 192.51758 z M 416.22656 226.38281 C 441.16646 226.38281 461.16992 246.38627 461.16992 271.32617 C 461.16992 296.26607 441.16646 316.26953 416.22656 316.26953 C 391.28666 316.26953 371.2832 296.26607 371.2832 271.32617 C 371.2832 246.38627 391.28666 226.38281 416.22656 226.38281 z " />
  </g>
</svg>
