<?xml version="1.0" encoding="UTF-8" standalone="no"?>
<!-- Created with Inkscape (http://www.inkscape.org/) -->

<svg
   width="1280"
   height="640"
   viewBox="0 0 1280 640"
   version="1.1"
   id="svg5"
   inkscape:version="1.1.1 (3bf5ae0d25, 2021-09-20, custom)"
   sodipodi:docname="volvox-copertina.svg"
   inkscape:export-filename="/media/dati/media/Tempfolder/icone/mie/volvox-banner.png"
   inkscape:export-xdpi="144.7702"
   inkscape:export-ydpi="144.7702"
   xmlns:inkscape="http://www.inkscape.org/namespaces/inkscape"
   xmlns:sodipodi="http://sodipodi.sourceforge.net/DTD/sodipodi-0.dtd"
   xmlns="http://www.w3.org/2000/svg"
   xmlns:svg="http://www.w3.org/2000/svg">
  <sodipodi:namedview
     id="namedview7"
     pagecolor="#5e5e5e"
     bordercolor="#666666"
     borderopacity="1.0"
     inkscape:pageshadow="2"
     inkscape:pageopacity="0"
     inkscape:pagecheckerboard="0"
     inkscape:document-units="px"
     showgrid="false"
     width="1280px"
     inkscape:snap-page="true"
     inkscape:snap-center="true"
     inkscape:snap-object-midpoints="true"
     inkscape:snap-text-baseline="true"
     inkscape:snap-smooth-nodes="true"
     inkscape:snap-midpoints="true"
     inkscape:snap-intersection-paths="true"
     inkscape:object-paths="true"
     inkscape:snap-bbox="true"
     inkscape:bbox-paths="true"
     inkscape:bbox-nodes="true"
     inkscape:snap-bbox-edge-midpoints="true"
     inkscape:snap-bbox-midpoints="true"
     inkscape:zoom="1.0958333"
     inkscape:cx="520.15209"
     inkscape:cy="403.80228"
     inkscape:window-width="1920"
     inkscape:window-height="1002"
     inkscape:window-x="1080"
     inkscape:window-y="537"
     inkscape:window-maximized="1"
     inkscape:current-layer="layer1" />
  <defs
     id="defs2">
    <linearGradient
       id="linearGradient2940"
       inkscape:swatch="solid">
      <stop
         style="stop-color:#00ff00;stop-opacity:1;"
         offset="0"
         id="stop2938" />
    </linearGradient>
  </defs>
  <g
     inkscape:label="Layer 1"
     inkscape:groupmode="layer"
     id="layer1">
    <g
       inkscape:label="Layer 1"
       id="layer1-5"
       transform="matrix(0.46484947,0,0,0.46484947,520.99854,97.569726)"
       inkscape:export-filename="/media/dati/media/Tempfolder/icone/mie/volvox.png"
       inkscape:export-xdpi="144.7702"
       inkscape:export-ydpi="144.7702">
      <path
         id="path31-2"
         style="color:#000000;fill:#4caf50;fill-opacity:1;fill-rule:evenodd;stroke-width:0.66312;-inkscape-stroke:none"
         d="m 640,45.242188 c -86.51957,0 -156.51562,69.996062 -156.51562,156.515622 0,86.51957 69.99605,156.51563 156.51562,156.51563 86.51957,0 156.51562,-69.99606 156.51562,-156.51563 C 796.51562,115.23825 726.51957,45.242188 640,45.242188 Z"
         transform="matrix(1.508023,0,0,1.508023,-709.13469,-48.256735)" />
      <path
         id="path1539-5-2-2"
         style="color:#000000;mix-blend-mode:normal;fill:#087f23;fill-opacity:1;stroke-width:0.66312;-inkscape-stroke:none"
         d="m 694.54688,88.558594 c -16.53815,0 -29.80274,13.264586 -29.80274,29.802736 0,16.53814 13.26459,29.80469 29.80274,29.80469 16.53814,0 29.80273,-13.26655 29.80273,-29.80469 0,-16.53815 -13.26459,-29.802736 -29.80273,-29.802736 z m -17.99024,71.103516 c -16.53814,0 -29.80273,13.26459 -29.80273,29.80273 0,16.53815 13.26459,29.80274 29.80273,29.80274 16.53814,0 29.80274,-13.26459 29.80274,-29.80274 0,-16.53814 -13.2646,-29.80273 -29.80274,-29.80273 z M 746.25,182.11914 c -16.53814,0 -29.80273,13.26459 -29.80273,29.80274 0,16.53814 13.26459,29.80273 29.80273,29.80273 16.53814,0 29.80273,-13.26459 29.80273,-29.80273 0,-16.53815 -13.26459,-29.80274 -29.80273,-29.80274 z"
         transform="matrix(1.508023,0,0,1.508023,-709.13469,-48.256735)" />
      <path
         style="color:#000000;fill:#ffffff;fill-opacity:1;fill-rule:evenodd;-inkscape-stroke:none"
         d="M 256,0 C 114.7335,0 0,114.7335 0,256 0,397.2665 114.7335,512 256,512 397.2665,512 512,397.2665 512,256 512,114.7335 397.2665,0 256,0 Z m 0,19.970703 C 386.47349,19.970703 492.0293,125.52651 492.0293,256 492.0293,386.47349 386.47349,492.0293 256,492.0293 125.52651,492.0293 19.970703,386.47349 19.970703,256 19.970703,125.52651 125.52651,19.970703 256,19.970703 Z"
         id="path31" />
      <path
         id="path1539-9"
         style="color:#000000;mix-blend-mode:normal;fill:#087f23;fill-opacity:1;stroke-width:0.66312;-inkscape-stroke:none"
         d="m 560.99805,101.76172 c -16.53815,0 -29.80274,13.2646 -29.80274,29.80273 0,16.53815 13.26459,29.80274 29.80274,29.80274 16.53814,0 29.80273,-13.26459 29.80273,-29.80274 0,-16.53813 -13.26459,-29.80273 -29.80273,-29.80273 z m -12.66993,72.75586 c -16.53814,0 -29.80273,13.26459 -29.80273,29.80273 0,16.53815 13.26459,29.80274 29.80273,29.80274 16.53815,0 29.80274,-13.26459 29.80274,-29.80274 0,-16.53814 -13.26459,-29.80273 -29.80274,-29.80273 z"
         transform="matrix(1.508023,0,0,1.508023,-709.13469,-48.256735)" />
      <path
         id="path1539"
         style="color:#000000;fill:#ffffff;fill-opacity:1;-inkscape-stroke:none"
         d="m 136.86328,85.203125 c -35.74869,0 -64.943358,29.194665 -64.943358,64.943355 0,19.58402 8.773202,37.18742 22.574219,49.11524 -24.325221,9.39739 -41.681641,33.04456 -41.681641,60.60156 0,35.74869 29.194668,64.94336 64.94336,64.94336 35.74869,0 64.94336,-29.19467 64.94336,-64.94336 0,-19.58402 -8.7732,-37.18742 -22.57422,-49.11523 24.32522,-9.39739 41.68164,-33.04456 41.68164,-60.60157 0,-35.74869 -29.19467,-64.943355 -64.94336,-64.943355 z m 0,19.999995 c 24.9399,0 44.94336,20.00347 44.94336,44.94336 0,24.9399 -20.00346,44.94336 -44.94336,44.94336 -24.9399,0 -44.943358,-20.00346 -44.943358,-44.94336 0,-24.93989 20.003458,-44.94336 44.943358,-44.94336 z m -19.10742,109.7168 c 24.9399,0 44.94336,20.00346 44.94336,44.94336 0,24.9399 -20.00346,44.94336 -44.94336,44.94336 -24.9399,0 -44.94336,-20.00346 -44.94336,-44.94336 0,-24.9399 20.00346,-44.94336 44.94336,-44.94336 z" />
      <path
         id="path1539-7-1"
         style="color:#000000;mix-blend-mode:normal;fill:#087f23;fill-opacity:1;stroke-width:0.66312;-inkscape-stroke:none"
         d="m 591.39258,260.64844 c -16.53815,0 -29.80274,13.26459 -29.80274,29.80273 0,16.53815 13.26459,29.80274 29.80274,29.80274 16.53814,0 29.80273,-13.26459 29.80273,-29.80274 0,-16.53814 -13.26459,-29.80273 -29.80273,-29.80273 z"
         transform="matrix(1.508023,0,0,1.508023,-709.13469,-48.256735)" />
      <path
         style="color:#000000;mix-blend-mode:normal;fill:#ffffff;fill-opacity:1;-inkscape-stroke:none"
         d="m 182.69922,324.80664 c -35.74869,0 -64.94336,29.19467 -64.94336,64.94336 0,35.74869 29.19467,64.94336 64.94336,64.94336 35.74869,0 64.94336,-29.19467 64.94336,-64.94336 0,-35.74869 -29.19467,-64.94336 -64.94336,-64.94336 z m 0,20 c 24.9399,0 44.94336,20.00346 44.94336,44.94336 0,24.9399 -20.00346,44.94336 -44.94336,44.94336 -24.9399,0 -44.94336,-20.00346 -44.94336,-44.94336 0,-24.9399 20.00346,-44.94336 44.94336,-44.94336 z"
         id="path1539-7" />
      <path
         id="path1539-5"
         style="color:#000000;fill:#ffffff;fill-opacity:1;-inkscape-stroke:none"
         d="m 338.25781,65.292969 c -35.74869,0 -64.94336,29.194668 -64.94336,64.943361 0,17.55933 7.05472,33.5265 18.45899,45.24023 -26.35665,8.27612 -45.58789,32.97109 -45.58789,61.98438 0,35.74869 29.19467,64.94336 64.94336,64.94336 16.01491,0 30.70404,-5.872 42.05273,-15.55469 6.99728,28.30233 32.64413,49.41992 63.04492,49.41992 35.74869,0 64.94336,-29.19467 64.94336,-64.94336 0,-35.74869 -29.19467,-64.94336 -64.94336,-64.94336 -16.01491,0 -30.70404,5.872 -42.05273,15.55469 -2.81068,-11.36851 -8.62958,-21.57062 -16.56055,-29.7168 26.35665,-8.27612 45.58789,-32.97108 45.58789,-61.98437 0,-35.748693 -29.19467,-64.943361 -64.94336,-64.943361 z m 0,20 c 24.9399,0 44.94336,20.003461 44.94336,44.943361 0,24.9399 -20.00346,44.94336 -44.94336,44.94336 -24.9399,0 -44.94336,-20.00346 -44.94336,-44.94336 0,-24.9399 20.00346,-44.943361 44.94336,-44.943361 z m -27.1289,107.224611 c 24.93989,0 44.94336,20.00346 44.94336,44.94336 0,24.9399 -20.00347,44.94336 -44.94336,44.94336 -24.9399,0 -44.94336,-20.00346 -44.94336,-44.94336 0,-24.9399 20.00346,-44.94336 44.94336,-44.94336 z m 105.09765,33.86523 c 24.9399,0 44.94336,20.00346 44.94336,44.94336 0,24.9399 -20.00346,44.94336 -44.94336,44.94336 -24.9399,0 -44.94336,-20.00346 -44.94336,-44.94336 0,-24.9399 20.00346,-44.94336 44.94336,-44.94336 z" />
    </g>
    <text
       xml:space="preserve"
       style="font-style:normal;font-weight:normal;font-size:106.667px;line-height:1.25;font-family:sans-serif;fill:#000000;fill-opacity:1;stroke:#ffffff;stroke-opacity:1;paint-order:stroke fill markers;stroke-width:10;stroke-miterlimit:4;stroke-dasharray:none;stroke-linejoin:round;stroke-linecap:round"
       x="194.21738"
       y="465.147"
       id="text2114"><tspan
         sodipodi:role="line"
         id="tspan2112"
         x="194.21738"
         y="465.147"
         style="font-style:normal;font-variant:normal;font-weight:normal;font-stretch:normal;font-size:106.667px;font-family:Hack;-inkscape-font-specification:Hack;stroke:#ffffff;stroke-opacity:1;paint-order:stroke fill markers;stroke-width:10;stroke-miterlimit:4;stroke-dasharray:none;stroke-linejoin:round;stroke-linecap:round">Volvox Project</tspan></text>
  </g>
</svg>
