<?xml version="1.0" encoding="UTF-8" standalone="no"?>
<!-- Created with Inkscape (http://www.inkscape.org/) -->

<svg
   width="24"
   height="24"
   viewBox="0 0 24 24"
   version="1.1"
   id="svg5"
   inkscape:version="1.1.1 (3bf5ae0d25, 2021-09-20, custom)"
   sodipodi:docname="volvox-icon-small.svg"
   inkscape:export-filename="/media/dati/media/Tempfolder/icone/mie/volvox.png"
   inkscape:export-xdpi="96"
   inkscape:export-ydpi="96"
   xmlns:inkscape="http://www.inkscape.org/namespaces/inkscape"
   xmlns:sodipodi="http://sodipodi.sourceforge.net/DTD/sodipodi-0.dtd"
   xmlns="http://www.w3.org/2000/svg"
   xmlns:svg="http://www.w3.org/2000/svg">
  <sodipodi:namedview
     id="namedview7"
     pagecolor="#ffffff"
     bordercolor="#666666"
     borderopacity="1.0"
     inkscape:pageshadow="2"
     inkscape:pageopacity="0.0"
     inkscape:pagecheckerboard="0"
     inkscape:document-units="px"
     showgrid="false"
     inkscape:snap-page="true"
     inkscape:snap-text-baseline="true"
     inkscape:snap-center="true"
     inkscape:snap-object-midpoints="true"
     inkscape:snap-midpoints="true"
     inkscape:snap-smooth-nodes="true"
     inkscape:object-paths="true"
     inkscape:snap-intersection-paths="true"
     inkscape:snap-bbox="true"
     inkscape:bbox-paths="true"
     inkscape:bbox-nodes="true"
     inkscape:snap-bbox-edge-midpoints="true"
     inkscape:snap-bbox-midpoints="true"
     inkscape:zoom="7.2407734"
     inkscape:cx="-21.682767"
     inkscape:cy="35.562499"
     inkscape:window-width="1920"
     inkscape:window-height="1002"
     inkscape:window-x="1080"
     inkscape:window-y="537"
     inkscape:window-maximized="1"
     inkscape:current-layer="layer1"
     width="32px" />
  <defs
     id="defs2">
    <linearGradient
       id="linearGradient2940"
       inkscape:swatch="solid">
      <stop
         style="stop-color:#00ff00;stop-opacity:1;"
         offset="0"
         id="stop2938" />
    </linearGradient>
  </defs>
  <g
     inkscape:label="Layer 1"
     inkscape:groupmode="layer"
     id="layer1">
    <path
       id="path31-2"
       style="color:#000000;fill:#4caf50;fill-opacity:1;fill-rule:evenodd;stroke-width:0.046875;-inkscape-stroke:none"
       d="M 12,0.9361267 C 5.884055,0.9361267 0.9361267,5.884055 0.9361267,12 0.9361267,18.115945 5.884055,23.063873 12,23.063873 18.115945,23.063873 23.063873,18.115945 23.063873,12 23.063873,5.884055 18.115945,0.9361267 12,0.9361267 Z" />
    <path
       style="color:#000000;fill:#ffffff;fill-opacity:1;fill-rule:evenodd;stroke-width:0.046875;-inkscape-stroke:none"
       d="M 12,0 C 5.378133,0 0,5.378133 0,12 0,18.621867 5.378133,24 12,24 18.621867,24 24,18.621867 24,12 24,5.378133 18.621867,0 12,0 Z m 0,0.9361267 C 18.115945,0.9361267 23.063873,5.884055 23.063873,12 23.063873,18.115945 18.115945,23.063873 12,23.063873 5.884055,23.063873 0.9361267,18.115945 0.9361267,12 0.9361267,5.884055 5.884055,0.9361267 12,0.9361267 Z"
       id="path31" />
    <path
       id="path1539-9"
       style="color:#000000;mix-blend-mode:normal;fill:#087f23;fill-opacity:1;stroke-width:0.046875;-inkscape-stroke:none"
       d="m 6.415466,4.9313962 c -1.1690575,0 -2.1067197,0.9376628 -2.1067197,2.1067203 0,1.1690575 0.9376622,2.1067195 2.1067197,2.1067195 1.169058,0 2.1067205,-0.937662 2.1067205,-2.1067195 0,-1.1690575 -0.9376625,-2.1067203 -2.1067205,-2.1067203 z m -0.89566,5.1429748 c -1.1690579,0 -2.10672,0.937662 -2.10672,2.10672 0,1.169058 0.9376621,2.10672 2.10672,2.10672 1.169058,0 2.10672,-0.937662 2.10672,-2.10672 0,-1.169058 -0.937662,-2.10672 -2.10672,-2.10672 z" />
    <path
       id="path1539"
       style="color:#000000;fill:#ffffff;fill-opacity:1;stroke-width:0.046875;-inkscape-stroke:none"
       d="m 6.415466,3.9938965 c -1.6757196,0 -3.0442196,1.3685 -3.0442196,3.04422 0,0.9180005 0.4112438,1.74316 1.0581664,2.3022765 -1.1402447,0.440503 -1.9538268,1.548964 -1.9538268,2.840698 0,1.67572 1.3685,3.04422 3.04422,3.04422 1.67572,0 3.04422,-1.3685 3.04422,-3.04422 0,-0.918 -0.411244,-1.74316 -1.0581665,-2.302276 1.1402445,-0.440503 1.953827,-1.548964 1.953827,-2.840699 0,-1.6757195 -1.3685005,-3.0442195 -3.0442205,-3.0442195 z m 0,0.9374997 c 1.169058,0 2.1067205,0.9376628 2.1067205,2.1067203 0,1.1690575 -0.9376625,2.1067195 -2.10672,2.1067195 -1.169058,0 -2.1067202,-0.937662 -2.1067202,-2.1067195 0,-1.1690575 0.9376622,-2.1067203 2.1067197,-2.1067203 z m -0.89566,5.1429748 c 1.169058,0 2.10672,0.937662 2.10672,2.10672 0,1.169058 -0.937662,2.10672 -2.10672,2.10672 -1.1690579,0 -2.10672,-0.937662 -2.10672,-2.10672 0,-1.169058 0.9376621,-2.10672 2.10672,-2.10672 z" />
    <path
       id="path1539-7-1"
       style="color:#000000;mix-blend-mode:normal;fill:#087f23;fill-opacity:1;stroke-width:0.046875;-inkscape-stroke:none"
       d="m 8.564026,16.162811 c -1.1690585,0 -2.10672,0.937662 -2.10672,2.10672 0,1.169058 0.937662,2.10672 2.10672,2.10672 1.1690575,0 2.10672,-0.937662 2.10672,-2.10672 0,-1.169058 -0.9376625,-2.10672 -2.10672,-2.10672 z" />
    <path
       style="color:#000000;mix-blend-mode:normal;fill:#ffffff;fill-opacity:1;stroke-width:0.046875;-inkscape-stroke:none"
       d="m 8.564026,15.225312 c -1.67572,0 -3.04422,1.368499 -3.04422,3.044219 0,1.67572 1.3685,3.04422 3.04422,3.04422 1.67572,0 3.04422,-1.3685 3.04422,-3.04422 0,-1.67572 -1.3685,-3.044219 -3.04422,-3.044219 z m 0,0.937499 c 1.1690575,0 2.10672,0.937662 2.10672,2.10672 0,1.169058 -0.9376625,2.10672 -2.10672,2.10672 -1.169058,0 -2.10672,-0.937662 -2.10672,-2.10672 0,-1.169058 0.937662,-2.10672 2.10672,-2.10672 z"
       id="path1539-7" />
    <path
       id="path1539-5-2"
       style="color:#000000;mix-blend-mode:normal;fill:#087f23;fill-opacity:1;stroke-width:0.046875;-inkscape-stroke:none"
       d="m 15.855835,3.9981079 c -1.169058,0 -2.10672,0.9376622 -2.10672,2.1067201 0,1.169058 0.937662,2.10672 2.10672,2.10672 1.169057,0 2.10672,-0.937662 2.10672,-2.10672 0,-1.1690578 -0.937663,-2.1067201 -2.10672,-2.1067201 z m -1.271667,5.0261536 c -1.169058,0 -2.10672,0.937662 -2.10672,2.1067205 0,1.169058 0.937662,2.10672 2.10672,2.10672 1.169057,0 2.106719,-0.937662 2.106719,-2.10672 0,-1.1690585 -0.937662,-2.1067205 -2.106719,-2.1067205 z m 4.926452,1.5874325 c -1.169058,0 -2.10672,0.937663 -2.10672,2.10672 0,1.169058 0.937662,2.10672 2.10672,2.10672 1.169058,0 2.10672,-0.937662 2.10672,-2.10672 0,-1.169058 -0.937662,-2.10672 -2.10672,-2.10672 z" />
    <path
       id="path1539-5"
       style="color:#000000;fill:#ffffff;fill-opacity:1;stroke-width:0.046875;-inkscape-stroke:none"
       d="m 15.855835,3.0606079 c -1.67572,0 -3.04422,1.3685001 -3.04422,3.0442201 0,0.8230935 0.33069,1.5715545 0.865265,2.1206355 -1.235468,0.3879435 -2.136932,1.54552 -2.136932,2.9055185 0,1.67572 1.3685,3.04422 3.04422,3.04422 0.750699,0 1.439251,-0.27525 1.971221,-0.729127 0.327998,1.326672 1.530194,2.316559 2.955231,2.316559 1.67572,0 3.04422,-1.3685 3.04422,-3.04422 0,-1.675719 -1.3685,-3.04422 -3.04422,-3.04422 -0.750699,0 -1.439252,0.27525 -1.971222,0.729127 C 17.407647,9.8704215 17.134886,9.3921975 16.763123,9.0103455 17.998591,8.622402 18.900055,7.464826 18.900055,6.104828 c 0,-1.67572 -1.3685,-3.0442201 -3.04422,-3.0442201 z m 0,0.9375 c 1.169057,0 2.10672,0.9376622 2.10672,2.1067201 0,1.169058 -0.937662,2.10672 -2.10672,2.10672 -1.169058,0 -2.10672,-0.937662 -2.10672,-2.10672 0,-1.1690578 0.937662,-2.1067201 2.10672,-2.1067201 z m -1.271667,5.0261536 c 1.169057,0 2.106719,0.937662 2.106719,2.1067205 0,1.169058 -0.937662,2.10672 -2.106719,2.10672 -1.169058,0 -2.10672,-0.937662 -2.10672,-2.10672 0,-1.1690585 0.937662,-2.1067205 2.10672,-2.1067205 z m 4.926452,1.5874325 c 1.169058,0 2.10672,0.937663 2.10672,2.10672 0,1.169058 -0.937662,2.10672 -2.10672,2.10672 -1.169058,0 -2.10672,-0.937662 -2.10672,-2.10672 0,-1.169058 0.937662,-2.10672 2.10672,-2.10672 z" />
  </g>
</svg>
